<svg xmlns="http://www.w3.org/2000/svg" xmlns:xlink="http://www.w3.org/1999/xlink" width="1890" zoomAndPan="magnify" viewBox="0 0 1416.96 1417.499936" height="1890" preserveAspectRatio="xMidYMid meet" version="1.0"><path fill="#545454" d="M 1251.851562 1094.339844 C 1251.851562 1094.339844 1151.574219 1143.570312 1129.75 1095.890625 C 1107.957031 1048.210938 1067.574219 959.984375 1037.0625 893.253906 C 1006.519531 826.554688 1079.527344 784.488281 1045.351562 653.136719 C 1011.242188 521.785156 859.683594 392.253906 859.683594 392.253906 L 798.203125 420.386719 L 736.722656 448.484375 C 736.722656 448.484375 735.664062 647.886719 812.730469 759.523438 C 889.796875 871.292969 969.375 843.589844 999.882812 910.257812 C 1030.425781 976.988281 1070.777344 1065.214844 1092.601562 1112.894531 C 1114.394531 1160.542969 1011.605469 1204.257812 1011.605469 1204.257812 C 1011.605469 1204.257812 980.46875 1217.996094 989.351562 1237.445312 L 1291.476562 1099.226562 C 1282.625 1079.777344 1251.851562 1094.339844 1251.851562 1094.339844 " fill-opacity="1" fill-rule="nonzero"/><path fill="#f8c158" d="M 788.890625 574.222656 C 801.109375 573.460938 813.128906 574.882812 824.320312 581.386719 C 843.4375 592.613281 866.191406 600.109375 888.675781 597.234375 C 914.101562 594 938.964844 583.863281 956.234375 566.460938 C 980.734375 596.078125 1003.914062 630.980469 1014.839844 666.640625 C 1038.21875 742.585938 1009.292969 778.675781 1009.953125 814.632812 C 1002.460938 823.152344 994.800781 829.855469 984.5625 833.453125 C 983.375 833.386719 982.152344 833.257812 980.964844 832.960938 C 977.234375 832.132812 973.667969 831.9375 970.429688 832.199219 C 941.507812 812.289062 896.367188 813.082031 849.582031 751.238281 C 811.410156 700.882812 795.460938 623.355469 788.890625 574.222656 " fill-opacity="1" fill-rule="nonzero"/><path fill="#545454" d="M 152.570312 1082.914062 C 152.570312 1082.914062 252.851562 1132.144531 274.660156 1084.5 C 296.472656 1036.820312 336.859375 948.59375 367.371094 881.828125 C 397.878906 815.160156 324.898438 773.09375 359.082031 641.710938 C 393.191406 510.363281 544.75 380.828125 544.75 380.828125 L 606.195312 408.960938 L 667.679688 437.058594 C 667.679688 437.058594 668.734375 636.460938 591.703125 748.132812 C 514.601562 859.871094 435.058594 832.132812 404.550781 898.832031 C 374.007812 965.597656 333.65625 1053.789062 311.835938 1101.46875 C 290.027344 1149.148438 392.828125 1192.867188 392.828125 1192.867188 C 392.828125 1192.867188 423.964844 1206.601562 415.082031 1226.050781 L 263.996094 1156.910156 L 112.933594 1087.800781 C 121.804688 1068.351562 152.570312 1082.914062 152.570312 1082.914062 " fill-opacity="1" fill-rule="nonzero"/><path fill="#f8c158" d="M 615.542969 562.796875 C 603.292969 562.070312 591.304688 563.457031 580.113281 569.996094 C 560.992188 581.222656 538.242188 588.714844 515.722656 585.84375 C 490.332031 582.574219 465.46875 572.4375 448.199219 555.070312 C 423.699219 584.65625 400.519531 619.589844 389.589844 655.21875 C 366.214844 731.195312 395.140625 767.25 394.476562 803.207031 C 401.941406 811.726562 409.632812 818.464844 419.871094 822.0625 C 421.058594 821.996094 422.28125 821.832031 423.46875 821.566406 C 427.199219 820.742188 430.734375 820.542969 434.003906 820.773438 C 462.925781 800.898438 508.0625 801.691406 554.851562 739.84375 C 592.988281 689.457031 608.96875 611.929688 615.542969 562.796875 " fill-opacity="1" fill-rule="nonzero"/><path fill="#545454" d="M 663.089844 387.136719 C 662.03125 387.136719 660.976562 386.640625 660.347656 385.714844 L 567.863281 249.796875 C 566.839844 248.300781 567.203125 246.238281 568.71875 245.21875 C 570.238281 244.1875 572.285156 244.589844 573.308594 246.082031 L 665.796875 381.984375 C 666.851562 383.503906 666.457031 385.550781 664.9375 386.574219 C 664.375 386.96875 663.75 387.136719 663.089844 387.136719 " fill-opacity="1" fill-rule="nonzero"/><path fill="#545454" d="M 712.1875 374.851562 C 710.4375 374.851562 708.953125 373.433594 708.886719 371.648438 L 702.480469 182.804688 C 702.414062 180.988281 703.867188 179.449219 705.683594 179.386719 C 707.566406 179.234375 709.019531 180.753906 709.085938 182.574219 L 715.488281 371.417969 C 715.554688 373.234375 714.136719 374.785156 712.320312 374.820312 L 712.1875 374.851562 " fill-opacity="1" fill-rule="nonzero"/><path fill="#545454" d="M 761.914062 387.136719 C 761.222656 387.136719 760.496094 386.9375 759.902344 386.472656 C 758.449219 385.386719 758.183594 383.304688 759.273438 381.851562 L 866.15625 240.320312 C 867.246094 238.863281 869.328125 238.566406 870.777344 239.675781 C 872.230469 240.769531 872.527344 242.835938 871.441406 244.289062 L 764.558594 385.847656 C 763.894531 386.707031 762.90625 387.136719 761.914062 387.136719 " fill-opacity="1" fill-rule="nonzero"/></svg>