<svg xmlns="http://www.w3.org/2000/svg" xmlns:xlink="http://www.w3.org/1999/xlink" width="1890" zoomAndPan="magnify" viewBox="0 0 1416.96 1417.499936" height="1890" preserveAspectRatio="xMidYMid meet" version="1.0"><defs><clipPath id="3a44d84567"><path d="M 40.214844 120 L 1376.992188 120 L 1376.992188 1309.488281 L 40.214844 1309.488281 Z M 40.214844 120 " clip-rule="nonzero"/></clipPath></defs><g clip-path="url(#3a44d84567)"><path fill="#545454" d="M 856.460938 1042.636719 L 849.921875 1032.019531 L 779.28125 917.371094 L 838.691406 824.988281 L 845.589844 814.261719 L 797.285156 814.261719 L 795.21875 817.382812 L 754.617188 878.890625 L 721.9375 825.761719 L 726.496094 824.464844 L 726.589844 824.429688 L 726.679688 824.40625 C 747.253906 817.90625 762.386719 806.65625 771.636719 790.96875 C 780.523438 775.910156 785.027344 759.875 785.027344 743.308594 C 785.027344 722.726562 777.863281 705.835938 761.070312 686.808594 C 746.207031 669.976562 723.519531 662.46875 687.523438 662.46875 L 561.023438 662.46875 L 561.023438 963.261719 L 612.546875 963.261719 L 612.546875 840.714844 L 672.617188 840.714844 L 727.519531 926.273438 L 658.347656 1031.859375 L 651.292969 1042.636719 L 700.28125 1042.636719 L 702.339844 1039.433594 L 751.796875 962.300781 L 799.953125 1039.359375 L 801.996094 1042.636719 Z M 1376.839844 529.195312 C 1376.839844 827.398438 1223.902344 1085.203125 1001.859375 1207.9375 L 415.625 1207.9375 C 193.582031 1085.203125 40.644531 827.398438 40.644531 529.195312 C 40.644531 524.683594 40.726562 520.199219 40.800781 515.707031 L 1376.683594 515.707031 C 1376.757812 520.199219 1376.839844 524.683594 1376.839844 529.195312 Z M 735.101562 743.589844 C 735.101562 730.863281 731.117188 721.933594 722.179688 714.644531 C 714.453125 708.335938 704.089844 705.644531 687.523438 705.644531 L 612.546875 705.644531 L 612.546875 793.371094 L 683.101562 793.371094 C 699.742188 793.371094 713.308594 788.257812 722.332031 778.585938 C 730.566406 769.761719 735.101562 757.335938 735.101562 743.589844 Z M 994.382812 1228.164062 L 423.101562 1228.164062 C 400.851562 1228.164062 382.648438 1246.367188 382.648438 1268.621094 C 382.648438 1290.875 400.851562 1309.078125 423.101562 1309.078125 L 994.382812 1309.078125 C 1016.632812 1309.078125 1034.835938 1290.875 1034.835938 1268.621094 C 1034.835938 1246.367188 1016.632812 1228.164062 994.382812 1228.164062 Z M 1090.644531 246.113281 C 1081.253906 221.980469 1081.949219 194.058594 1094.980469 169.539062 L 1094.980469 169.53125 C 1118.726562 124.839844 1174.71875 107.691406 1219.417969 131.4375 C 1264.113281 155.179688 1281.261719 211.179688 1257.519531 255.878906 C 1244.484375 280.40625 1221.738281 296.609375 1196.484375 302.335938 L 1093.699219 495.828125 L 957.996094 495.828125 L 1090.644531 246.113281 " fill-opacity="1" fill-rule="nonzero"/></g></svg>