<svg xmlns="http://www.w3.org/2000/svg" xmlns:xlink="http://www.w3.org/1999/xlink" width="1890" zoomAndPan="magnify" viewBox="0 0 1416.96 1417.499936" height="1890" preserveAspectRatio="xMidYMid meet" version="1.0"><defs><clipPath id="3a38ceae58"><path d="M 173 829 L 1383.058594 829 L 1383.058594 1275.164062 L 173 1275.164062 Z M 173 829 " clip-rule="nonzero"/></clipPath><clipPath id="cbef8abae6"><path d="M 34 113.269531 L 1292 113.269531 L 1292 791 L 34 791 Z M 34 113.269531 " clip-rule="nonzero"/></clipPath></defs><g clip-path="url(#3a38ceae58)"><path fill="#545454" d="M 1085.367188 1129.101562 L 1216.195312 980.625 L 1237.097656 956.917969 L 1237.988281 955.890625 C 1240.738281 952.773438 1244.570312 951.199219 1248.421875 951.199219 C 1251.027344 951.199219 1253.664062 951.9375 1255.941406 953.433594 C 1256.523438 953.769531 1257.089844 954.203125 1257.605469 954.664062 L 1268.296875 964.070312 L 1275.054688 970.011719 C 1277.589844 972.246094 1279.164062 975.214844 1279.621094 978.511719 C 1279.679688 978.847656 1279.710938 979.226562 1279.734375 979.5625 C 1279.96875 983.28125 1278.738281 986.855469 1276.304688 989.660156 L 1275.878906 990.152344 L 1254.96875 1013.855469 L 1125.089844 1161.269531 L 1112.367188 1175.679688 C 1109.910156 1178.484375 1106.503906 1180.136719 1102.816406 1180.371094 C 1102.4375 1180.394531 1102.101562 1180.394531 1101.722656 1180.394531 C 1100.347656 1180.394531 1099.007812 1180.171875 1097.722656 1179.769531 L 1086.171875 1170.417969 L 1076.164062 1162.320312 L 1075.304688 1161.550781 C 1074.757812 1161.070312 1074.277344 1160.578125 1073.839844 1160.042969 C 1069.496094 1154.859375 1069.472656 1147.140625 1074.042969 1141.933594 Z M 1164.433594 1240.113281 L 1125.234375 1205.5625 C 1126.085938 1205.105469 1126.890625 1204.566406 1127.691406 1204.019531 C 1130.753906 1201.929688 1133.558594 1199.417969 1136.070312 1196.582031 L 1299.875 1010.703125 L 1300.007812 1010.539062 C 1303.191406 1006.929688 1305.726562 1002.929688 1307.59375 998.675781 L 1346.769531 1033.214844 C 1352.519531 1038.273438 1353.054688 1047.085938 1347.996094 1052.828125 L 1184.058594 1238.882812 C 1178.988281 1244.625 1170.183594 1245.171875 1164.433594 1240.113281 Z M 1367.644531 1009.511719 L 1309.503906 958.261719 C 1307.191406 956.226562 1304.734375 954.460938 1302.152344 952.976562 C 1300.332031 950.574219 1298.242188 948.339844 1295.953125 946.308594 L 1278.503906 930.949219 C 1259.695312 914.371094 1230.863281 916.167969 1214.285156 935.015625 L 1213.113281 936.355469 L 1093.085938 833.496094 L 898.265625 833.496094 L 604.035156 862.496094 L 600.773438 864.640625 C 597.96875 866.496094 573.183594 883.539062 573.070312 909.480469 C 573.015625 925.753906 582.308594 940.242188 600.660156 952.574219 C 608.761719 957.980469 633.402344 974.5 760.03125 978.878906 C 820.886719 980.96875 876.816406 979.191406 877.386719 979.191406 L 876.359375 947.59375 C 792.859375 950.285156 648.960938 946.878906 618.277344 926.324219 C 613.21875 922.917969 604.695312 916.226562 604.695312 909.644531 C 604.660156 903.757812 610.816406 896.980469 615.417969 893.125 L 899.066406 865.097656 L 1081.390625 865.097656 L 1192.203125 960.070312 L 1060.769531 1109.195312 L 981.25 1044.796875 L 727.511719 1078.800781 L 334.773438 951.289062 L 210.433594 878.570312 C 212.980469 873.164062 216.957031 867.242188 222.621094 864.070312 C 229.109375 860.375 237.433594 860.429688 248.066406 864.203125 C 299.082031 882.3125 419.824219 925.976562 421.050781 926.402344 L 423.820312 927.40625 L 545.578125 924.769531 L 544.898438 893.179688 L 429.027344 895.695312 C 410.585938 889.027344 305.4375 851.023438 258.644531 834.414062 C 234.171875 825.722656 216.921875 830.859375 206.746094 836.726562 C 182.53125 850.621094 176.429688 879.542969 175.839844 882.792969 L 173.773438 893.75 L 321.757812 980.308594 L 724.574219 1111.082031 L 971.933594 1077.941406 L 1042.050781 1134.695312 C 1035.378906 1151.976562 1039.726562 1172.328125 1054.402344 1185.265625 L 1071.839844 1200.648438 C 1074.132812 1202.644531 1076.589844 1204.421875 1079.167969 1205.910156 C 1080.988281 1208.308594 1083.078125 1210.542969 1085.402344 1212.597656 L 1143.53125 1263.816406 C 1152.167969 1271.421875 1162.925781 1275.164062 1173.613281 1275.164062 C 1186.226562 1275.164062 1198.78125 1269.960938 1207.761719 1259.78125 L 1371.699219 1073.738281 C 1388.289062 1054.882812 1386.488281 1026.097656 1367.644531 1009.511719 " fill-opacity="1" fill-rule="nonzero"/></g><path fill="#545454" d="M 1105.230469 484.902344 C 1101.019531 477.261719 1091.402344 474.480469 1083.761719 478.703125 C 1076.121094 482.914062 1073.347656 492.53125 1077.558594 500.171875 C 1081.972656 508.167969 1085.871094 516.59375 1089.121094 525.195312 C 1091.511719 531.515625 1097.523438 535.414062 1103.898438 535.414062 C 1105.765625 535.414062 1107.652344 535.078125 1109.496094 534.386719 C 1117.664062 531.292969 1121.773438 522.175781 1118.679688 514.011719 C 1114.890625 504.003906 1110.367188 494.21875 1105.230469 484.902344 " fill-opacity="1" fill-rule="nonzero"/><path fill="#545454" d="M 1071.953125 439.292969 C 1009.734375 373.199219 911.800781 346.457031 816.375 369.511719 C 807.894531 371.566406 802.679688 380.101562 804.722656 388.578125 C 806.777344 397.070312 815.3125 402.285156 823.800781 400.230469 C 908.207031 379.832031 994.484375 403.101562 1048.941406 460.953125 C 1052.046875 464.257812 1056.246094 465.921875 1060.445312 465.921875 C 1064.335938 465.921875 1068.234375 464.492188 1071.269531 461.621094 C 1077.636719 455.644531 1077.929688 445.636719 1071.953125 439.292969 " fill-opacity="1" fill-rule="nonzero"/><g clip-path="url(#cbef8abae6)"><path fill="#545454" d="M 67.945312 722.117188 C 66.828125 718.398438 66.113281 714.511719 65.886719 710.476562 L 1259.382812 710.476562 C 1257.804688 737.644531 1235.207031 759.238281 1207.652344 759.238281 L 117.605469 759.238281 C 94.136719 759.238281 74.289062 743.5625 67.945312 722.117188 Z M 656.511719 258.601562 C 660.714844 258.511719 664.890625 258.476562 669.070312 258.476562 C 822.707031 258.476562 967.207031 302.464844 1077.160156 382.9375 C 1184.796875 461.710938 1246.738281 566.378906 1252.625 678.875 L 74.632812 678.875 C 92.21875 449.191406 345.125 263.425781 656.511719 258.601562 Z M 643.085938 157.796875 C 650.636719 150 660.78125 145.621094 671.628906 145.453125 C 671.839844 145.453125 672.0625 145.445312 672.273438 145.445312 C 694.382812 145.445312 712.554688 163.261719 712.902344 185.457031 C 713.070312 196.3125 709.003906 206.578125 701.441406 214.375 C 693.890625 222.164062 683.746094 226.550781 672.902344 226.71875 C 662.019531 226.863281 651.765625 222.820312 643.980469 215.269531 C 636.183594 207.707031 631.792969 197.574219 631.625 186.71875 C 631.457031 175.859375 635.523438 165.59375 643.085938 157.796875 Z M 1291.0625 707.417969 L 1291.0625 678.875 L 1284.257812 678.875 C 1281.398438 618.601562 1263.929688 560.4375 1232.179688 505.722656 C 1199.71875 449.792969 1153.855469 399.894531 1095.800781 357.425781 C 995.277344 283.855469 867.554688 239.386719 730.25 229.15625 C 739.734375 216.453125 744.75 201.074219 744.503906 184.964844 C 743.878906 145.132812 710.925781 113.21875 671.136719 113.855469 C 651.84375 114.15625 633.828125 121.953125 620.386719 135.804688 C 606.960938 149.65625 599.734375 167.917969 600.023438 187.210938 C 600.257812 202.367188 605.140625 216.734375 613.941406 228.71875 C 464.738281 238.605469 326.316406 288.425781 220.476562 371.042969 C 163.796875 415.308594 119.507812 466.605469 88.789062 523.519531 C 61.988281 573.183594 46.609375 625.3125 42.921875 678.875 L 34.199219 678.875 L 34.199219 707.417969 C 34.199219 753.425781 71.628906 790.828125 117.605469 790.828125 L 1207.652344 790.828125 C 1253.664062 790.828125 1291.0625 753.425781 1291.0625 707.417969 " fill-opacity="1" fill-rule="nonzero"/></g></svg>